<?xml version="1.0" standalone="no"?>
<!DOCTYPE svg PUBLIC "-//W3C//DTD SVG 20010904//EN"
 "http://www.w3.org/TR/2001/REC-SVG-20010904/DTD/svg10.dtd">
<svg version="1.0" xmlns="http://www.w3.org/2000/svg"
 width="400.000000pt" height="400.000000pt" viewBox="0 0 400.000000 400.000000"
 preserveAspectRatio="xMidYMid meet">

<g transform="translate(0.000000,400.000000) scale(0.100000,-0.100000)"
fill="#000000" stroke="none">
<path d="M1404 3600 c-12 -5 -25 -14 -29 -20 -8 -14 -75 -542 -76 -605 -1 -57
-28 -290 -40 -355 -19 -96 -82 -212 -151 -275 -114 -106 -150 -117 -823 -250
-71 -14 -136 -32 -144 -40 -20 -20 -18 -71 4 -95 10 -11 34 -22 54 -25 20 -3
155 -30 301 -59 146 -30 294 -59 330 -66 188 -32 368 -193 419 -375 13 -47 49
-330 50 -395 1 -25 16 -170 35 -324 37 -300 40 -309 96 -309 58 0 58 0 110
429 26 220 48 423 49 452 4 253 200 483 446 523 39 6 176 33 305 61 129 27
264 54 299 58 35 5 71 15 79 24 20 20 21 82 1 101 -8 8 -73 26 -144 40 -676
134 -709 144 -822 249 -96 89 -163 247 -165 387 0 103 -95 840 -109 854 -20
19 -51 25 -75 15z m49 -870 c30 -236 75 -338 212 -475 106 -106 203 -155 389
-195 72 -15 157 -31 189 -35 31 -3 57 -10 57 -13 0 -4 -51 -18 -112 -31 -319
-67 -388 -96 -514 -213 -59 -56 -160 -195 -169 -234 -2 -10 -13 -50 -23 -89
-11 -38 -25 -123 -32 -188 -7 -64 -16 -117 -20 -117 -4 0 -10 30 -14 67 -14
144 -38 275 -57 320 -45 106 -144 227 -254 310 -81 62 -144 83 -387 134 -87
19 -154 37 -150 41 4 4 42 12 82 18 367 48 558 167 696 431 30 56 46 131 65
297 7 61 15 112 19 112 3 0 14 -63 23 -140z"/>
<path d="M3310 3483 c0 -7 -23 -199 -36 -298 -3 -22 -7 -50 -9 -62 -5 -24 -65
-90 -108 -117 -24 -17 -130 -44 -198 -51 -84 -9 -109 -17 -109 -35 0 -21 7
-23 155 -46 84 -13 121 -24 156 -46 63 -39 100 -95 111 -166 13 -91 38 -285
38 -299 0 -7 9 -13 20 -13 18 0 20 7 21 58 1 31 1 61 0 66 -5 26 21 202 36
238 19 50 92 123 137 137 17 5 88 19 159 32 105 18 127 25 127 40 0 13 -12 19
-52 25 -29 4 -56 7 -60 6 -18 -4 -186 42 -213 58 -45 28 -80 70 -98 118 -15
36 -41 212 -36 238 1 5 1 35 0 67 -1 50 -3 57 -21 57 -11 0 -20 -3 -20 -7z"/>
<path d="M3306 1873 c-3 -27 -8 -75 -11 -108 -4 -33 -10 -80 -15 -105 -6 -25
-11 -61 -13 -81 -4 -42 -45 -98 -99 -135 -35 -24 -132 -51 -218 -60 -79 -8
-100 -15 -100 -33 0 -22 6 -24 155 -47 84 -13 121 -24 156 -46 63 -39 100 -95
111 -166 13 -91 38 -285 38 -299 0 -7 9 -13 20 -13 18 0 20 7 21 58 1 31 1 61
0 66 -5 26 21 202 36 238 19 50 92 123 137 137 17 5 88 19 159 32 105 18 127
25 127 40 0 13 -12 19 -52 25 -29 4 -56 7 -60 6 -18 -4 -186 42 -213 58 -45
28 -80 70 -98 118 -15 36 -41 212 -36 238 1 5 1 35 0 67 -1 49 -4 57 -20 57
-15 0 -20 -9 -25 -47z"/>
</g>
</svg>
